<mxfile host="Electron" agent="Mozilla/5.0 (Macintosh; Intel Mac OS X 10_15_7) AppleWebKit/537.36 (KHTML, like Gecko) draw.io/26.2.15 Chrome/134.0.6998.205 Electron/35.2.1 Safari/537.36" version="26.2.15">
  <diagram name="Page-1" id="4NIV9bs7bUIZyq_QXBLB">
    <mxGraphModel dx="1234" dy="898" grid="1" gridSize="10" guides="1" tooltips="1" connect="1" arrows="1" fold="1" page="1" pageScale="1" pageWidth="1169" pageHeight="827" math="0" shadow="0">
      <root>
        <mxCell id="0" />
        <mxCell id="1" parent="0" />
        <mxCell id="Vm_7mKmRdQNCRdAhx2Lu-3" value="eBPF Backend (Kernelspace)" style="swimlane;whiteSpace=wrap;html=1;sketch=1;curveFitting=1;jiggle=2;fontSize=17;" parent="1" vertex="1">
          <mxGeometry x="80" y="40" width="400" height="640" as="geometry" />
        </mxCell>
        <mxCell id="Vm_7mKmRdQNCRdAhx2Lu-5" value="Non-whitelisted Syscall Detected" style="rounded=1;whiteSpace=wrap;html=1;sketch=1;curveFitting=1;jiggle=2;fontSize=17;" parent="Vm_7mKmRdQNCRdAhx2Lu-3" vertex="1">
          <mxGeometry x="150" y="30" width="120" height="60" as="geometry" />
        </mxCell>
        <mxCell id="Vm_7mKmRdQNCRdAhx2Lu-9" style="edgeStyle=orthogonalEdgeStyle;rounded=0;orthogonalLoop=1;jettySize=auto;html=1;exitX=0;exitY=0.5;exitDx=0;exitDy=0;exitPerimeter=0;entryX=0.5;entryY=0;entryDx=0;entryDy=0;sketch=1;curveFitting=1;jiggle=2;fontSize=17;" parent="Vm_7mKmRdQNCRdAhx2Lu-3" source="Vm_7mKmRdQNCRdAhx2Lu-6" target="Vm_7mKmRdQNCRdAhx2Lu-8" edge="1">
          <mxGeometry relative="1" as="geometry" />
        </mxCell>
        <mxCell id="Vm_7mKmRdQNCRdAhx2Lu-10" value="Kill" style="edgeLabel;html=1;align=center;verticalAlign=middle;resizable=0;points=[];sketch=1;curveFitting=1;jiggle=2;fontSize=17;" parent="Vm_7mKmRdQNCRdAhx2Lu-9" vertex="1" connectable="0">
          <mxGeometry x="-0.1273" y="1" relative="1" as="geometry">
            <mxPoint as="offset" />
          </mxGeometry>
        </mxCell>
        <mxCell id="Vm_7mKmRdQNCRdAhx2Lu-12" value="Warn" style="edgeStyle=orthogonalEdgeStyle;rounded=0;orthogonalLoop=1;jettySize=auto;html=1;exitX=0.5;exitY=1;exitDx=0;exitDy=0;exitPerimeter=0;entryX=0.5;entryY=0;entryDx=0;entryDy=0;sketch=1;curveFitting=1;jiggle=2;fontSize=17;" parent="Vm_7mKmRdQNCRdAhx2Lu-3" source="Vm_7mKmRdQNCRdAhx2Lu-6" target="Vm_7mKmRdQNCRdAhx2Lu-11" edge="1">
          <mxGeometry relative="1" as="geometry" />
        </mxCell>
        <mxCell id="Vm_7mKmRdQNCRdAhx2Lu-14" style="edgeStyle=orthogonalEdgeStyle;rounded=0;orthogonalLoop=1;jettySize=auto;html=1;exitX=1;exitY=0.5;exitDx=0;exitDy=0;exitPerimeter=0;entryX=0.5;entryY=0;entryDx=0;entryDy=0;sketch=1;curveFitting=1;jiggle=2;fontSize=17;" parent="Vm_7mKmRdQNCRdAhx2Lu-3" source="Vm_7mKmRdQNCRdAhx2Lu-6" target="Vm_7mKmRdQNCRdAhx2Lu-13" edge="1">
          <mxGeometry relative="1" as="geometry" />
        </mxCell>
        <mxCell id="Vm_7mKmRdQNCRdAhx2Lu-15" value="Kill All" style="edgeLabel;html=1;align=center;verticalAlign=middle;resizable=0;points=[];sketch=1;curveFitting=1;jiggle=2;fontSize=17;" parent="Vm_7mKmRdQNCRdAhx2Lu-14" vertex="1" connectable="0">
          <mxGeometry x="0.0054" y="-3" relative="1" as="geometry">
            <mxPoint as="offset" />
          </mxGeometry>
        </mxCell>
        <mxCell id="Vm_7mKmRdQNCRdAhx2Lu-6" value="Read mode&lt;div&gt;from &lt;font face=&quot;Courier New&quot;&gt;cfg_map&lt;/font&gt;&lt;/div&gt;" style="strokeWidth=2;html=1;shape=mxgraph.flowchart.decision;whiteSpace=wrap;sketch=1;curveFitting=1;jiggle=2;fontSize=17;" parent="Vm_7mKmRdQNCRdAhx2Lu-3" vertex="1">
          <mxGeometry x="100" y="110" width="220" height="90" as="geometry" />
        </mxCell>
        <mxCell id="Vm_7mKmRdQNCRdAhx2Lu-7" style="edgeStyle=orthogonalEdgeStyle;rounded=0;orthogonalLoop=1;jettySize=auto;html=1;exitX=0.5;exitY=1;exitDx=0;exitDy=0;entryX=0.5;entryY=0;entryDx=0;entryDy=0;entryPerimeter=0;sketch=1;curveFitting=1;jiggle=2;fontSize=17;" parent="Vm_7mKmRdQNCRdAhx2Lu-3" source="Vm_7mKmRdQNCRdAhx2Lu-5" target="Vm_7mKmRdQNCRdAhx2Lu-6" edge="1">
          <mxGeometry relative="1" as="geometry" />
        </mxCell>
        <mxCell id="Vm_7mKmRdQNCRdAhx2Lu-19" style="edgeStyle=orthogonalEdgeStyle;rounded=0;orthogonalLoop=1;jettySize=auto;html=1;exitX=0.5;exitY=1;exitDx=0;exitDy=0;entryX=0;entryY=0.5;entryDx=0;entryDy=0;sketch=1;curveFitting=1;jiggle=2;fontSize=17;" parent="Vm_7mKmRdQNCRdAhx2Lu-3" source="Vm_7mKmRdQNCRdAhx2Lu-8" target="Vm_7mKmRdQNCRdAhx2Lu-18" edge="1">
          <mxGeometry relative="1" as="geometry" />
        </mxCell>
        <mxCell id="Vm_7mKmRdQNCRdAhx2Lu-8" value="BPF: Send SIGKILL&lt;div&gt;(current process)&lt;/div&gt;" style="rounded=1;whiteSpace=wrap;html=1;sketch=1;curveFitting=1;jiggle=2;fillColor=#f8cecc;strokeColor=#b85450;fontSize=17;" parent="Vm_7mKmRdQNCRdAhx2Lu-3" vertex="1">
          <mxGeometry x="10" y="200" width="120" height="60" as="geometry" />
        </mxCell>
        <mxCell id="Vm_7mKmRdQNCRdAhx2Lu-17" value="" style="edgeStyle=orthogonalEdgeStyle;rounded=0;orthogonalLoop=1;jettySize=auto;html=1;entryX=0.5;entryY=0;entryDx=0;entryDy=0;sketch=1;curveFitting=1;jiggle=2;fontSize=17;" parent="Vm_7mKmRdQNCRdAhx2Lu-3" source="Vm_7mKmRdQNCRdAhx2Lu-11" target="Vm_7mKmRdQNCRdAhx2Lu-18" edge="1">
          <mxGeometry relative="1" as="geometry">
            <mxPoint x="210" y="410" as="targetPoint" />
          </mxGeometry>
        </mxCell>
        <mxCell id="Vm_7mKmRdQNCRdAhx2Lu-11" value="BPF: Write info&lt;div&gt;to ringbuffer&lt;/div&gt;" style="ellipse;whiteSpace=wrap;html=1;sketch=1;curveFitting=1;jiggle=2;fillColor=#fff2cc;strokeColor=#d6b656;fontSize=17;" parent="Vm_7mKmRdQNCRdAhx2Lu-3" vertex="1">
          <mxGeometry x="150" y="240" width="120" height="80" as="geometry" />
        </mxCell>
        <mxCell id="Vm_7mKmRdQNCRdAhx2Lu-21" style="edgeStyle=orthogonalEdgeStyle;rounded=0;orthogonalLoop=1;jettySize=auto;html=1;exitX=0.5;exitY=1;exitDx=0;exitDy=0;entryX=0.5;entryY=0;entryDx=0;entryDy=0;sketch=1;curveFitting=1;jiggle=2;fontSize=17;" parent="Vm_7mKmRdQNCRdAhx2Lu-3" source="Vm_7mKmRdQNCRdAhx2Lu-13" target="Vm_7mKmRdQNCRdAhx2Lu-20" edge="1">
          <mxGeometry relative="1" as="geometry" />
        </mxCell>
        <mxCell id="Vm_7mKmRdQNCRdAhx2Lu-13" value="BPF: Write info&lt;div&gt;to ringbuffer&lt;/div&gt;" style="ellipse;whiteSpace=wrap;html=1;sketch=1;curveFitting=1;jiggle=2;fillColor=#fff2cc;strokeColor=#d6b656;fontSize=17;" parent="Vm_7mKmRdQNCRdAhx2Lu-3" vertex="1">
          <mxGeometry x="270" y="300" width="120" height="80" as="geometry" />
        </mxCell>
        <mxCell id="Vm_7mKmRdQNCRdAhx2Lu-18" value="Return 0" style="rounded=1;whiteSpace=wrap;html=1;sketch=1;curveFitting=1;jiggle=2;fillColor=#dae8fc;strokeColor=#6c8ebf;fontSize=17;" parent="Vm_7mKmRdQNCRdAhx2Lu-3" vertex="1">
          <mxGeometry x="150" y="540" width="120" height="60" as="geometry" />
        </mxCell>
        <mxCell id="Vm_7mKmRdQNCRdAhx2Lu-22" style="edgeStyle=orthogonalEdgeStyle;rounded=0;orthogonalLoop=1;jettySize=auto;html=1;exitX=0.5;exitY=1;exitDx=0;exitDy=0;entryX=1;entryY=0.5;entryDx=0;entryDy=0;sketch=1;curveFitting=1;jiggle=2;fontSize=17;" parent="Vm_7mKmRdQNCRdAhx2Lu-3" source="Vm_7mKmRdQNCRdAhx2Lu-20" target="Vm_7mKmRdQNCRdAhx2Lu-18" edge="1">
          <mxGeometry relative="1" as="geometry" />
        </mxCell>
        <mxCell id="Vm_7mKmRdQNCRdAhx2Lu-20" value="BPF: Send SIGKILL&lt;div&gt;(current process)&lt;/div&gt;" style="rounded=1;whiteSpace=wrap;html=1;sketch=1;curveFitting=1;jiggle=2;fillColor=#f8cecc;strokeColor=#b85450;fontSize=17;" parent="Vm_7mKmRdQNCRdAhx2Lu-3" vertex="1">
          <mxGeometry x="270" y="420" width="120" height="60" as="geometry" />
        </mxCell>
        <mxCell id="Vm_7mKmRdQNCRdAhx2Lu-4" value="Go Frontend (Userspace)" style="swimlane;whiteSpace=wrap;html=1;sketch=1;curveFitting=1;jiggle=2;fontSize=17;" parent="1" vertex="1">
          <mxGeometry x="560" y="40" width="320" height="640" as="geometry" />
        </mxCell>
        <mxCell id="Vm_7mKmRdQNCRdAhx2Lu-28" style="edgeStyle=orthogonalEdgeStyle;rounded=0;orthogonalLoop=1;jettySize=auto;html=1;exitX=0;exitY=0.5;exitDx=0;exitDy=0;exitPerimeter=0;entryX=0.5;entryY=0;entryDx=0;entryDy=0;sketch=1;curveFitting=1;jiggle=2;fontSize=17;" parent="Vm_7mKmRdQNCRdAhx2Lu-4" source="Vm_7mKmRdQNCRdAhx2Lu-26" target="Vm_7mKmRdQNCRdAhx2Lu-29" edge="1">
          <mxGeometry relative="1" as="geometry">
            <mxPoint x="60" y="280" as="targetPoint" />
          </mxGeometry>
        </mxCell>
        <mxCell id="Vm_7mKmRdQNCRdAhx2Lu-30" value="KillAll" style="edgeLabel;html=1;align=center;verticalAlign=middle;resizable=0;points=[];sketch=1;curveFitting=1;jiggle=2;fontSize=17;" parent="Vm_7mKmRdQNCRdAhx2Lu-28" vertex="1" connectable="0">
          <mxGeometry x="-0.087" relative="1" as="geometry">
            <mxPoint y="1" as="offset" />
          </mxGeometry>
        </mxCell>
        <mxCell id="Vm_7mKmRdQNCRdAhx2Lu-34" style="edgeStyle=orthogonalEdgeStyle;rounded=0;orthogonalLoop=1;jettySize=auto;html=1;exitX=1;exitY=0.5;exitDx=0;exitDy=0;exitPerimeter=0;entryX=0.5;entryY=0;entryDx=0;entryDy=0;sketch=1;curveFitting=1;jiggle=2;fontSize=17;" parent="Vm_7mKmRdQNCRdAhx2Lu-4" source="Vm_7mKmRdQNCRdAhx2Lu-26" target="Vm_7mKmRdQNCRdAhx2Lu-31" edge="1">
          <mxGeometry relative="1" as="geometry" />
        </mxCell>
        <mxCell id="Vm_7mKmRdQNCRdAhx2Lu-26" value="Read mode from&lt;div&gt;&lt;font face=&quot;Courier New&quot;&gt;FilterCfg&lt;/font&gt; struct&lt;/div&gt;" style="strokeWidth=2;html=1;shape=mxgraph.flowchart.decision;whiteSpace=wrap;sketch=1;curveFitting=1;jiggle=2;fontSize=17;" parent="Vm_7mKmRdQNCRdAhx2Lu-4" vertex="1">
          <mxGeometry x="50" y="190" width="220" height="90" as="geometry" />
        </mxCell>
        <mxCell id="Vm_7mKmRdQNCRdAhx2Lu-27" value="" style="edgeStyle=orthogonalEdgeStyle;rounded=0;orthogonalLoop=1;jettySize=auto;html=1;exitX=0.5;exitY=1;exitDx=0;exitDy=0;entryX=0.5;entryY=0;entryDx=0;entryDy=0;entryPerimeter=0;sketch=1;curveFitting=1;jiggle=2;fontSize=17;" parent="Vm_7mKmRdQNCRdAhx2Lu-4" target="Vm_7mKmRdQNCRdAhx2Lu-26" edge="1">
          <mxGeometry relative="1" as="geometry">
            <mxPoint x="160" y="120" as="sourcePoint" />
          </mxGeometry>
        </mxCell>
        <mxCell id="Vm_7mKmRdQNCRdAhx2Lu-36" style="edgeStyle=orthogonalEdgeStyle;rounded=0;orthogonalLoop=1;jettySize=auto;html=1;exitX=0.5;exitY=1;exitDx=0;exitDy=0;sketch=1;curveFitting=1;jiggle=2;entryX=0.5;entryY=0;entryDx=0;entryDy=0;fontSize=17;" parent="Vm_7mKmRdQNCRdAhx2Lu-4" source="Vm_7mKmRdQNCRdAhx2Lu-29" target="Vm_7mKmRdQNCRdAhx2Lu-37" edge="1">
          <mxGeometry relative="1" as="geometry">
            <mxPoint x="70" y="440" as="targetPoint" />
          </mxGeometry>
        </mxCell>
        <mxCell id="Vm_7mKmRdQNCRdAhx2Lu-29" value="Iterate follow map" style="rounded=1;whiteSpace=wrap;html=1;arcSize=33;sketch=1;curveFitting=1;jiggle=2;fontSize=17;" parent="Vm_7mKmRdQNCRdAhx2Lu-4" vertex="1">
          <mxGeometry x="10" y="364" width="120" height="60" as="geometry" />
        </mxCell>
        <mxCell id="Vm_7mKmRdQNCRdAhx2Lu-31" value="User: Log event" style="rounded=1;whiteSpace=wrap;html=1;arcSize=33;sketch=1;curveFitting=1;jiggle=2;fillColor=#e1d5e7;strokeColor=#9673a6;fontSize=17;" parent="Vm_7mKmRdQNCRdAhx2Lu-4" vertex="1">
          <mxGeometry x="190" y="330" width="120" height="60" as="geometry" />
        </mxCell>
        <mxCell id="Vm_7mKmRdQNCRdAhx2Lu-49" style="edgeStyle=orthogonalEdgeStyle;rounded=0;sketch=1;hachureGap=4;jiggle=2;curveFitting=1;orthogonalLoop=1;jettySize=auto;html=1;exitX=0.5;exitY=1;exitDx=0;exitDy=0;entryX=0;entryY=0.25;entryDx=0;entryDy=0;fontFamily=Architects Daughter;fontSource=https%3A%2F%2Ffonts.googleapis.com%2Fcss%3Ffamily%3DArchitects%2BDaughter;fontSize=17;" parent="Vm_7mKmRdQNCRdAhx2Lu-4" source="Vm_7mKmRdQNCRdAhx2Lu-37" target="Vm_7mKmRdQNCRdAhx2Lu-43" edge="1">
          <mxGeometry relative="1" as="geometry" />
        </mxCell>
        <mxCell id="Vm_7mKmRdQNCRdAhx2Lu-37" value="Send SIGKILL to each process" style="rounded=1;whiteSpace=wrap;html=1;arcSize=33;sketch=1;curveFitting=1;jiggle=2;fillColor=#f8cecc;strokeColor=#b85450;fontSize=17;" parent="Vm_7mKmRdQNCRdAhx2Lu-4" vertex="1">
          <mxGeometry x="10" y="470" width="120" height="60" as="geometry" />
        </mxCell>
        <mxCell id="Vm_7mKmRdQNCRdAhx2Lu-51" style="edgeStyle=orthogonalEdgeStyle;rounded=0;sketch=1;hachureGap=4;jiggle=2;curveFitting=1;orthogonalLoop=1;jettySize=auto;html=1;exitX=0;exitY=0.5;exitDx=0;exitDy=0;exitPerimeter=0;fontFamily=Architects Daughter;fontSource=https%3A%2F%2Ffonts.googleapis.com%2Fcss%3Ffamily%3DArchitects%2BDaughter;entryX=0;entryY=0.75;entryDx=0;entryDy=0;fontSize=17;" parent="Vm_7mKmRdQNCRdAhx2Lu-4" source="Vm_7mKmRdQNCRdAhx2Lu-38" target="Vm_7mKmRdQNCRdAhx2Lu-43" edge="1">
          <mxGeometry relative="1" as="geometry">
            <mxPoint x="40" y="120" as="targetPoint" />
            <Array as="points">
              <mxPoint x="-30" y="120" />
              <mxPoint x="-30" y="615" />
            </Array>
          </mxGeometry>
        </mxCell>
        <mxCell id="Vm_7mKmRdQNCRdAhx2Lu-53" value="Ringbuffer&lt;div&gt;Closed&lt;/div&gt;" style="edgeLabel;html=1;align=center;verticalAlign=middle;resizable=0;points=[];sketch=1;hachureGap=4;jiggle=2;curveFitting=1;fontFamily=Helvetica;fontSize=17;" parent="Vm_7mKmRdQNCRdAhx2Lu-51" vertex="1" connectable="0">
          <mxGeometry x="-0.1377" y="4" relative="1" as="geometry">
            <mxPoint x="-9" as="offset" />
          </mxGeometry>
        </mxCell>
        <mxCell id="Vm_7mKmRdQNCRdAhx2Lu-38" value="Wait to read from&lt;div&gt;ringbuffer&lt;/div&gt;" style="strokeWidth=2;html=1;shape=mxgraph.flowchart.decision;whiteSpace=wrap;sketch=1;curveFitting=1;jiggle=2;fontSize=17;" parent="Vm_7mKmRdQNCRdAhx2Lu-4" vertex="1">
          <mxGeometry x="100" y="70" width="120" height="100" as="geometry" />
        </mxCell>
        <mxCell id="Vm_7mKmRdQNCRdAhx2Lu-43" value="Return wil err=nil" style="rounded=1;whiteSpace=wrap;html=1;sketch=1;curveFitting=1;jiggle=2;fillColor=#dae8fc;strokeColor=#6c8ebf;fontSize=17;" parent="Vm_7mKmRdQNCRdAhx2Lu-4" vertex="1">
          <mxGeometry x="100" y="570" width="120" height="60" as="geometry" />
        </mxCell>
        <mxCell id="Vm_7mKmRdQNCRdAhx2Lu-54" style="edgeStyle=orthogonalEdgeStyle;rounded=0;sketch=1;hachureGap=4;jiggle=2;curveFitting=1;orthogonalLoop=1;jettySize=auto;html=1;exitX=0.5;exitY=1;exitDx=0;exitDy=0;entryX=0.5;entryY=0;entryDx=0;entryDy=0;entryPerimeter=0;fontFamily=Architects Daughter;fontSource=https%3A%2F%2Ffonts.googleapis.com%2Fcss%3Ffamily%3DArchitects%2BDaughter;fontSize=17;" parent="Vm_7mKmRdQNCRdAhx2Lu-4" source="Vm_7mKmRdQNCRdAhx2Lu-31" target="Vm_7mKmRdQNCRdAhx2Lu-38" edge="1">
          <mxGeometry relative="1" as="geometry">
            <Array as="points">
              <mxPoint x="250" y="410" />
              <mxPoint x="350" y="410" />
              <mxPoint x="350" y="50" />
              <mxPoint x="160" y="50" />
            </Array>
          </mxGeometry>
        </mxCell>
      </root>
    </mxGraphModel>
  </diagram>
</mxfile>
